<svg width="45.000000" height="45.000000" viewBox="0 0 45 45" fill="none" xmlns="http://www.w3.org/2000/svg" xmlns:xlink="http://www.w3.org/1999/xlink">
	<path id="constructor-icon" d="M34.63 18.17L38.54 14.26L30.73 6.45L17.08 20.11L24.88 27.91L34.63 18.17ZM40.73 12.06L32.93 4.26L36.72 0.47C37.18 0.01 37.95 -0.19 38.36 0.22L44.77 6.63C45.18 7.04 44.98 7.81 44.52 8.27L40.73 12.06ZM15.76 23.18L21.81 29.23L13.93 31.06L15.76 23.18ZM5.33 41.16L16.95 41.16L28.84 41.16L5.33 41.16ZM0 17.27L9.9 17.27L11.45 17.27L11.45 5.81L0 17.27ZM11.45 5.81L26.99 5.81L13.79 19.01C13.54 19.26 13.42 19.52 13.35 19.86L10.35 32.78C10.1 33.89 11.09 34.91 12.24 34.63L25.13 31.64C25.44 31.59 25.74 31.44 25.98 31.2L34.18 23L34.18 45L0 45L0 17.27L9.9 17.27C10.33 17.27 11.45 17.27 11.45 17.27C11.45 17.27 11.45 16.14 11.45 15.72L11.45 5.81Z" fill="#000000" fill-opacity="1.000000" fill-rule="evenodd"/>
</svg>
