<svg width="26.000000" height="32.000000" viewBox="0 0 26 32" fill="none" xmlns="http://www.w3.org/2000/svg" xmlns:xlink="http://www.w3.org/1999/xlink">
	<path id="path" d="M24 26.28L21.71 26.28L21.71 24C21.71 23.37 21.2 22.85 20.57 22.85C19.94 22.85 19.42 23.37 19.42 24L19.42 26.28L17.14 26.28C16.51 26.28 16 26.79 16 27.42C16 28.05 16.51 28.57 17.14 28.57L19.42 28.57L19.42 30.85C19.42 31.48 19.94 32 20.57 32C21.2 32 21.71 31.48 21.71 30.85L21.71 28.57L24 28.57C24.62 28.57 25.14 28.05 25.14 27.42C25.14 26.79 24.62 26.28 24 26.28Z" fill="#000000" fill-opacity="1.000000" fill-rule="nonzero"/>
	<path id="path" d="M25.14 12.37C25.14 11.46 24.78 10.59 24.13 9.95L15.18 1C14.54 0.35 13.67 0 12.76 0L3.42 0C1.54 0 0 1.54 0 3.42L0 28.57C0 30.45 1.54 32 3.42 32L13.71 32C14.34 32 14.85 31.48 14.85 30.85C14.85 30.22 14.34 29.71 13.71 29.71L3.42 29.71C2.79 29.71 2.28 29.2 2.28 28.57L2.28 3.42C2.28 2.79 2.79 2.28 3.42 2.28L12.57 2.28L12.57 9.14C12.57 11.02 14.11 12.57 16 12.57L22.85 12.57L22.85 20.57C22.85 21.2 23.37 21.71 24 21.71C24.62 21.71 25.14 21.2 25.14 20.57L25.14 12.37ZM14.85 9.14L14.85 3.89L21.24 10.28L16 10.28C15.37 10.28 14.85 9.77 14.85 9.14Z" fill="#000000" fill-opacity="1.000000" fill-rule="nonzero"/>
</svg>
