<svg width="23.000000" height="23.000000" viewBox="0 0 23 23" fill="none" xmlns="http://www.w3.org/2000/svg" xmlns:xlink="http://www.w3.org/1999/xlink">
	<path id="path" d="M9.36 1.6C5.07 1.6 1.6 5.07 1.6 9.36C1.6 13.64 5.07 17.11 9.36 17.11C13.64 17.11 17.11 13.64 17.11 9.36C17.11 5.07 13.64 1.6 9.36 1.6ZM0 9.36C0 4.19 4.19 0 9.36 0C14.52 0 18.72 4.19 18.72 9.36C18.72 14.52 14.52 18.72 9.36 18.72C4.19 18.72 0 14.52 0 9.36Z" fill="#555555" fill-opacity="1.000000" fill-rule="evenodd"/>
	<path id="path" d="M15.21 15.21C15.52 14.89 16.03 14.89 16.34 15.21L22.76 21.63C23.07 21.94 23.07 22.45 22.76 22.76C22.45 23.07 21.94 23.07 21.63 22.76L15.21 16.34C14.89 16.03 14.89 15.52 15.21 15.21Z" fill="#555555" fill-opacity="1.000000" fill-rule="evenodd"/>
</svg>
