<svg width="236.000000" height="289.000000" viewBox="0 0 236 289" fill="none" xmlns="http://www.w3.org/2000/svg" xmlns:xlink="http://www.w3.org/1999/xlink">
	<path id="path" d="M64.47 77.55C64.47 81.5 67.51 84.54 71.46 84.54L136.85 84.54C140.8 84.54 143.85 81.5 143.85 77.55C143.85 73.59 140.8 70.55 136.85 70.55L71.46 70.55C67.51 70.55 64.47 73.59 64.47 77.55Z" fill="#000000" fill-opacity="0.137931" fill-rule="nonzero"/>
	<path id="path" d="M44.7 84.54L49.87 84.54C53.83 84.54 56.87 81.5 56.87 77.55C56.87 73.59 53.83 70.55 49.87 70.55L44.7 70.55C40.75 70.55 37.71 73.59 37.71 77.55C37.71 81.5 40.75 84.54 44.7 84.54Z" fill="#000000" fill-opacity="0.137931" fill-rule="nonzero"/>
	<path id="path" d="M136.85 107.05L71.46 107.05C67.51 107.05 64.47 110.09 64.47 114.04C64.47 118 67.51 121.04 71.46 121.04L136.85 121.04C140.8 121.04 143.85 118 143.85 114.04C143.85 110.09 140.5 107.05 136.85 107.05Z" fill="#000000" fill-opacity="0.137931" fill-rule="nonzero"/>
	<path id="path" d="M44.7 121.04L49.87 121.04C53.83 121.04 56.87 118 56.87 114.04C56.87 110.09 53.83 107.05 49.87 107.05L44.7 107.05C40.75 107.05 37.71 110.09 37.71 114.04C37.71 118 40.75 121.04 44.7 121.04Z" fill="#000000" fill-opacity="0.137931" fill-rule="nonzero"/>
	<path id="path" d="M136.85 143.54L71.46 143.54C67.51 143.54 64.47 146.58 64.47 150.54C64.47 154.49 67.51 157.53 71.46 157.53L136.85 157.53C140.8 157.53 143.85 154.49 143.85 150.54C143.85 146.58 140.5 143.54 136.85 143.54Z" fill="#000000" fill-opacity="0.137931" fill-rule="nonzero"/>
	<path id="path" d="M44.7 157.53L49.87 157.53C53.83 157.53 56.87 154.49 56.87 150.54C56.87 146.58 53.83 143.54 49.87 143.54L44.7 143.54C40.75 143.54 37.71 146.58 37.71 150.54C37.71 154.49 40.75 157.53 44.7 157.53Z" fill="#000000" fill-opacity="0.137931" fill-rule="nonzero"/>
	<path id="path" d="M71.16 180.04C67.21 180.04 64.16 183.08 64.16 187.03C64.16 190.98 67.21 194.03 71.16 194.03L106.74 194.03C109.18 189.16 112.22 184.29 115.87 180.04L71.16 180.04Z" fill="#000000" fill-opacity="0.137931" fill-rule="nonzero"/>
	<path id="path" d="M44.7 194.03L49.87 194.03C53.83 194.03 56.87 190.98 56.87 187.03C56.87 183.08 53.83 180.04 49.87 180.04L44.7 180.04C40.75 180.04 37.71 183.08 37.71 187.03C37.71 190.98 40.75 194.03 44.7 194.03Z" fill="#000000" fill-opacity="0.137931" fill-rule="nonzero"/>
	<path id="path" d="M13.98 220.49L13.98 44.09L31.93 44.09L31.93 30.1L6.99 30.1C3.04 30.1 0 33.14 0 37.1L0 227.48C0 231.43 3.04 234.47 6.99 234.47L99.44 234.47C99.14 232.04 99.14 229.91 99.14 227.48C99.14 225.05 99.14 222.92 99.44 220.49L13.98 220.49Z" fill="#000000" fill-opacity="0.137931" fill-rule="nonzero"/>
	<path id="path" d="M167.57 152.36C170 152.06 172.13 152.06 174.56 152.06C177 152.06 179.12 152.06 181.56 152.36L181.56 37.1C181.56 33.14 178.52 30.1 174.56 30.1L149.62 30.1L149.62 44.09L167.57 44.09L167.57 152.36Z" fill="#000000" fill-opacity="0.137931" fill-rule="nonzero"/>
	<path id="path" d="M135.63 25.85C135.63 21.28 131.99 17.94 127.73 17.94L113.74 17.94C111 7.6 101.88 0 90.62 0C79.68 0 70.55 7.6 67.81 17.94L54.13 17.94C49.57 17.94 46.22 21.59 46.22 25.85L46.22 44.09L135.63 44.09L135.63 25.85ZM90.62 33.14C85.15 33.14 80.89 28.89 80.89 23.41C80.89 17.94 85.15 13.68 90.62 13.68C95.79 13.68 100.36 17.94 100.36 23.41C100.36 28.89 96.1 33.14 90.62 33.14Z" fill="#000000" fill-opacity="0.137931" fill-rule="nonzero"/>
	<path id="path" d="M174.56 166.05C140.8 166.05 113.13 193.72 113.13 227.48C113.13 261.24 140.8 288.91 174.56 288.91C208.32 288.91 236 261.24 236 227.48C236 193.72 208.62 166.05 174.56 166.05ZM174.56 274.92C148.41 274.92 127.12 253.63 127.12 227.48C127.12 201.33 148.41 180.04 174.56 180.04C200.72 180.04 222.01 201.33 222.01 227.48C222.01 253.63 200.72 274.92 174.56 274.92Z" fill="#000000" fill-opacity="0.137931" fill-rule="nonzero"/>
	<path id="path" d="M197.98 220.49L181.56 220.49L181.56 204.06C181.56 200.11 178.52 197.07 174.56 197.07C170.61 197.07 167.57 200.11 167.57 204.06L167.57 220.49L151.14 220.49C147.19 220.49 144.15 223.53 144.15 227.48C144.15 231.43 147.19 234.47 151.14 234.47L167.57 234.47L167.57 250.9C167.57 254.85 170.61 257.89 174.56 257.89C178.52 257.89 181.56 254.85 181.56 250.9L181.56 234.47L197.98 234.47C201.93 234.47 204.97 231.43 204.97 227.48C204.97 223.53 201.63 220.49 197.98 220.49Z" fill="#000000" fill-opacity="0.137931" fill-rule="nonzero"/>
</svg>
