<svg width="252.000000" height="213.000000" viewBox="0 0 252 213" fill="none" xmlns="http://www.w3.org/2000/svg" xmlns:xlink="http://www.w3.org/1999/xlink">
	<path id="папка фон" d="M247.05 77.68C242.8 72.58 237.34 70.35 230.69 71C231.98 66.86 232.28 62.66 231.56 58.4C230.85 54.13 229.2 50.25 226.63 46.75C224.06 43.26 220.83 40.52 216.94 38.53C213.06 36.55 208.93 35.54 204.56 35.5L130.45 35.5L110.79 4.18C109.04 1.39 106.5 0 103.18 0L45.18 0C37.2 0 30.51 2.91 25.12 8.74C19.73 14.56 17.38 21.41 18.08 29.28L22.34 71C19.3 70.39 16.3 70.53 13.33 71.41C10.35 72.29 7.77 73.8 5.56 75.96C3.35 78.11 1.78 80.65 0.85 83.58C-0.08 86.51 -0.26 89.48 0.31 92.5L22.28 191.98C23.69 198.13 26.89 203.17 31.87 207.1C36.85 211.03 42.53 213 48.9 213L202.02 213C208.39 213 214.07 211.03 219.05 207.1C224.03 203.17 227.23 198.13 228.64 191.98L250.58 92.5C251.81 87 250.63 82.06 247.05 77.68ZM35.93 27.51C35.72 24.85 36.53 22.55 38.37 20.6C40.22 18.65 42.49 17.7 45.18 17.75L98.19 17.75L117.84 49.06C119.6 51.85 122.14 53.25 125.46 53.25L204.56 53.25C207.35 53.2 209.67 54.21 211.52 56.27C213.37 58.33 214.12 60.73 213.75 63.47L212.53 71L40.41 71L35.93 27.51ZM211.13 188.2C209.98 192.94 206.95 195.29 202.02 195.25L48.9 195.25C43.97 195.29 40.94 192.94 39.79 188.2L18.03 88.75L233.06 88.82L211.13 188.2ZM233.06 88.82L241.82 90.64L233.06 88.82Z" fill="#000000" fill-opacity="0.140000" fill-rule="nonzero"/>
</svg>
