<svg width="40.00000" height="40.000000" viewBox="0 0 40 30" fill="none" xmlns="http://www.w3.org/2000/svg" xmlns:xlink="http://www.w3.org/1999/xlink">
	<path id="trainee-icon" d="M15.64 11.53L15.64 9.59C15.64 8.46 16.04 7.5 16.84 6.71C17.64 5.91 18.6 5.51 19.73 5.51C20.85 5.51 21.81 5.91 22.61 6.71C23.41 7.5 23.81 8.46 23.81 9.59L23.81 11.53C23.81 12.66 23.41 13.62 22.61 14.42C21.81 15.21 20.85 15.61 19.73 15.61C18.6 15.61 17.64 15.21 16.84 14.42C16.04 13.62 15.64 12.66 15.64 11.53ZM22.04 17.11L17.41 17.11C16.78 17.11 16.16 17.24 15.57 17.48C14.98 17.73 14.46 18.08 14.01 18.53C13.55 18.98 13.21 19.5 12.96 20.09C12.72 20.69 12.6 21.3 12.6 21.94L12.6 28.64C12.6 28.97 12.76 29.14 13.1 29.14L26.35 29.14C26.69 29.14 26.85 28.97 26.85 28.64L26.85 21.94C26.85 21.3 26.73 20.69 26.49 20.09C26.24 19.5 25.9 18.98 25.44 18.53C24.99 18.08 24.47 17.73 23.88 17.48C23.29 17.24 22.67 17.11 22.04 17.11ZM32.31 10.09C33.44 10.09 34.4 9.69 35.2 8.89C36 8.1 36.39 7.14 36.39 6.01L36.39 4.07C36.39 2.94 36 1.98 35.2 1.19C34.41 0.39 33.45 0 32.32 0C31.19 0 30.23 0.39 29.44 1.19C28.64 1.98 28.25 2.94 28.25 4.07L28.25 6.01C28.25 7.13 28.64 8.09 29.44 8.89C30.23 9.69 31.19 10.09 32.31 10.09ZM34.62 11.6L30 11.6C29.37 11.6 28.75 11.72 28.16 11.97C27.57 12.21 27.05 12.56 26.6 13.01C26.15 13.46 25.8 13.99 25.55 14.58C25.31 15.17 25.19 15.78 25.18 16.42L25.18 17.05C26.97 18.19 27.86 19.82 27.85 21.94L27.85 23.63L38.96 23.63C39.29 23.63 39.46 23.46 39.46 23.13L39.46 16.42C39.45 15.78 39.33 15.17 39.08 14.57C38.84 13.98 38.49 13.46 38.04 13.01C37.58 12.56 37.06 12.21 36.47 11.97C35.88 11.72 35.26 11.6 34.62 11.6ZM7.14 10.09C8.26 10.09 9.22 9.69 10.01 8.89C10.81 8.09 11.2 7.13 11.21 6.01L11.21 4.07C11.21 2.94 10.81 1.98 10.01 1.19C9.22 0.39 8.26 0 7.13 0C6 0 5.04 0.39 4.25 1.19C3.45 1.98 3.06 2.94 3.06 4.07L3.06 6.01C3.06 7.14 3.45 8.1 4.25 8.89C5.05 9.69 6.01 10.09 7.14 10.09ZM14.27 17.05L14.27 16.42C14.26 15.78 14.14 15.17 13.9 14.58C13.65 13.99 13.3 13.46 12.85 13.01C12.4 12.56 11.88 12.21 11.29 11.97C10.7 11.72 10.08 11.6 9.45 11.6L4.83 11.6C4.19 11.6 3.57 11.72 2.98 11.97C2.39 12.21 1.87 12.56 1.41 13.01C0.96 13.46 0.61 13.98 0.37 14.57C0.12 15.17 0 15.78 0 16.42L0 23.13C0 23.46 0.16 23.63 0.5 23.63L11.6 23.63L11.6 21.94C11.59 19.82 12.48 18.19 14.27 17.05Z" fill="#F5D82D" fill-opacity="1.000000" fill-rule="nonzero"/>
</svg>