<svg width="30.000000" height="29.000000" viewBox="0 0 30 29" fill="none" xmlns="http://www.w3.org/2000/svg" xmlns:xlink="http://www.w3.org/1999/xlink">
	<path id="path" d="M10 0C10 0 10 0.38 10 0.85C10 1.32 10 1.75 10 1.75L19.01 1.75C19.01 1.75 19.01 1.32 19.01 0.85C19.01 0.38 19.01 0 19.01 0L10 0ZM8.66 9.43L7.9 9.43L7.9 22.82L8.55 22.82L9.43 22.82L9.43 9.43C9.43 9.43 9.24 9.43 8.99 9.43C8.88 9.43 8.81 9.43 8.66 9.43ZM14.51 9.43C14.04 9.43 13.65 9.43 13.65 9.43L13.6 22.87C13.6 22.87 14.04 22.87 14.51 22.87C14.98 22.87 15.36 22.87 15.36 22.87L15.36 9.43C15.36 9.43 14.98 9.43 14.51 9.43ZM20.35 9.43C19.88 9.43 19.53 9.43 19.53 9.43L19.53 22.87C19.53 22.87 19.88 22.87 20.35 22.87C20.82 22.87 21.06 22.87 21.06 22.87L21.28 9.43C21.28 9.43 20.82 9.43 20.35 9.43ZM25.57 4.37L25.57 27.21L25.57 27.21L3.45 27.21L3.45 27.21L3.45 4.37L25.57 4.37ZM29.02 2.63L0.43 2.63C0 2.63 0 2.63 0 2.63C0 2.76 0 3.23 0 3.52C2.28e-5 3.8 0 4.25 0 4.37C0 4.37 0.11 4.37 0.43 4.37L1.74 4.37L1.75 28.09C1.75 28.97 1.75 28.97 1.75 28.97L27.21 29C27.21 29 27.2 29 27.21 29C27.23 28.99 27.21 29 27.21 29L27.27 4.37L29.02 4.37C29.02 4.37 29.02 3.99 29.02 3.52C29.02 3.05 29.02 2.63 29.02 2.63Z" fill="#232323" fill-opacity="0.670000" fill-rule="nonzero"/>
</svg>
